<?xml version="1.0" encoding="utf-8"?>
<!-- Generator: Adobe Illustrator 27.6.1, SVG Export Plug-In . SVG Version: 6.00 Build 0)  -->
<svg version="1.1" id="Layer_1" xmlns="http://www.w3.org/2000/svg" xmlns:xlink="http://www.w3.org/1999/xlink" x="0px" y="0px"
	 viewBox="0 0 219.1 174.4" style="enable-background:new 0 0 219.1 174.4;" xml:space="preserve">
<style type="text/css">
	.st0{display:none;}
	.st1{display:none;opacity:0.2196;}
	.st2{enable-background:new    ;}
	.st3{display:inline;}
	.st4{fill:#F2F4F4;}
	.st5{fill:#1CE1DA;}
</style>
<g id="Layer_1_xA0_Image_00000054960547510612335370000008244049496365143687_">
</g>
<g id="Layer52_xA0_Image_00000022540311713017710240000016165624609376932024_">
</g>
<g id="Layer53_xA0_Image_00000119801097336525073920000006399784410231329443_">
</g>
<g id="Image_xA0_3_xA0_Image_00000053509549331462634090000007552813720405381051_" class="st0">
</g>
<g id="Layer54_xA0_Image_00000110431334194593704540000017848814406320694682_">
</g>
<g id="Image_xA0_5_xA0_Image_00000021108085674778682500000000344985395898917013_" class="st1">
</g>
<g id="Group2_00000139279293772213548510000009738935604415263908_" class="st2">
	<g id="Layer15_xA0_Image_00000121270590268867012850000001522787576117731229_">
	</g>
	<g id="Image_xA0_14_00000049925601163331731210000013255623446695145899_" class="st0">
		<g id="Layer34_xA0_Image_00000065792717383869481360000005109994348856316340_" class="st3">
		</g>
		<g id="Layer35_xA0_Image_00000029006912364759794930000004595860740095165624_" class="st3">
		</g>
		<g id="Layer36_xA0_Image_00000019647659355585910470000006840595904304299941_" class="st3">
		</g>
		<g id="Layer37_xA0_Image_00000060720420919790187180000006392301534438133389_" class="st3">
		</g>
		<g id="Layer38_xA0_Image_00000062150834941326014470000010167431813090967689_" class="st3">
		</g>
	</g>
	<g id="Layer16_xA0_Image_00000138555741561448830550000006359111371629347981_">
	</g>
	<g id="Layer49_xA0_Image_00000011004219769903139980000015443708728338033057_">
	</g>
	<g id="Layer18_xA0_Image_00000012439099567445805690000012599338459109782928_">
	</g>
	<g id="Layer50_xA0_Image_00000096774491772889188450000010543714827813916329_">
	</g>
	<g id="Layer43_xA0_Image_00000136396604773671807880000003487289762402681260_">
	</g>
	<g id="Layer47_xA0_Image_00000139282208827676389460000012504594858786659765_">
	</g>
	<g id="Layer19_xA0_Image_00000065785834763200829130000018404487925343816352_">
	</g>
	<g id="Layer51_xA0_Image_00000139988531775295722350000008315669549036341674_">
	</g>
	<g id="Layer21_xA0_Image_00000108282811671024668400000011228956519723731636_">
	</g>
	<g id="Layer20_xA0_Image_00000116208411955723207860000004420793065023182466_">
	</g>
	<g id="Layer106_xA0_Image_00000071546784470474302700000004104596520829369989_">
	</g>
	<g id="Layer17_xA0_Image_00000027599153394251422300000017904352122886197153_">
	</g>
	<g id="Layer107_xA0_Image_00000167361106600474055990000001753131892489613441_">
	</g>
	<g id="Layer7_xA0_Image_00000089545982940513903900000001587342276646986150_">
	</g>
	<g id="Image_xA0_29_xA0_Image_00000135691692391119668510000011646428507056752816_" class="st0">
	</g>
	<g id="Image_xA0_30_xA0_Image_00000062177768356457734530000004647774274537529731_" class="st0">
	</g>
	<g id="Layer3_xA0_Image_00000142137099750107748250000015979687885497580460_">
	</g>
</g>
<g id="Image_xA0_33_xA0_Image_00000180329792028283170840000008555692572264901535_" class="st0">
</g>
<g id="Layer46_xA0_Image_00000003078991528003966240000011935541912102458279_">
</g>
<g id="Layer48_xA0_Image_00000121967393701068629520000001073108365222912926_">
</g>
<g id="Layer45_xA0_Image_00000006669309686595777600000010232539306189969303_">
</g>
<g id="Group1_00000131346456151802510090000003550838108328204683_" class="st2">
	<g id="Layer8_xA0_Image_00000125590039341036922910000001252079728243571100_">
	</g>
	<g id="Layer56_xA0_Image_00000127742070341401212770000015610270735376338361_">
	</g>
	<g id="Layer55_xA0_Image_00000114769238078450970460000016866536367884893615_">
	</g>
	<g id="Layer9_xA0_Image_00000134931703305199320280000014432980172507191449_">
	</g>
	<g id="Layer32_xA0_Image_00000097472031229695291210000009507592795407590333_">
	</g>
	<g id="Layer33_xA0_Image_00000003823717631279103500000004272151080923094419_">
	</g>
	<g id="Layer25_xA0_Image_00000032643034788602186160000008167974870587396233_">
	</g>
	<g id="Layer_1_xA0_Image_00000052823900207174861520000015802106091283477890_">
	</g>
	<g id="Layer41_xA0_Image_00000100374448257830813390000006029556688102827920_">
	</g>
	<g id="Layer26_xA0_Image_00000062164633578283602660000005087318857310048958_">
	</g>
	<g id="Layer10_xA0_Image_00000106868939759669681890000000197099634782113442_">
	</g>
	<g id="Layer27_xA0_Image_00000014629704265892650850000012213499144204910726_">
	</g>
	<g id="Layer11_xA0_Image_00000004524795360594592550000011420418203369646511_">
	</g>
	<g id="Layer28_xA0_Image_00000110471846332975886600000001339185484632566973_">
	</g>
	<g id="Layer12_xA0_Image_00000101061767748607361800000017076007812242954428_">
	</g>
	<g id="Layer29_xA0_Image_00000090990646581784272160000013125346103674761859_">
	</g>
	<g id="Layer13_xA0_Image_00000035492270295400952930000001804850911373376168_">
	</g>
	<g id="Layer30_xA0_Image_00000109709290518680233460000010821982981220624804_">
	</g>
	<g id="Layer14_xA0_Image_00000031912608236165316890000014280289602503390349_">
	</g>
	<g id="Layer31_xA0_Image_00000114045880723867632910000003210032668330193578_">
	</g>
	<g id="Layer22_xA0_Image_00000111894739041539877120000000936585433078827441_">
	</g>
	<g id="Layer40_xA0_Image_00000142176855399090748010000008543896394310072485_">
	</g>
	<g id="Layer6_xA0_Image_00000181085943054720281770000018246882086926376084_">
	</g>
	<g id="Layer2_xA0_Image_00000114777445463100281530000017108027022750218899_">
	</g>
</g>
<g id="Group_1_00000114045797371766986570000010418712931730743958_" class="st2">
	<g id="Layer35_xA0_Image_00000012430028441475023200000004752684195438118533_">
	</g>
	<g id="Layer37_xA0_Image_00000021114383514943066960000015276590891853083325_">
	</g>
	<g id="Layer42_xA0_Image_00000151520719739095972130000014008742121570242476_">
	</g>
	<g id="Layer2_xA0_Image_00000013163746012700535180000002684288886153021322_">
	</g>
	<g id="Layer59_xA0_Image_00000001647537064043913360000002979069844581969305_">
	</g>
	<g id="Layer60_xA0_Image_00000162316298232742847730000016473008285238611114_">
	</g>
</g>
<g id="Layer_1_xA0_Image_00000047769268701181691620000017591147405035955367_">
</g>
<g id="Group_2_00000059276949378446259270000012557110889807275935_">
	<g id="Layer35_xA0_Image_00000001637119245305433370000012847463633335684769_">
	</g>
	<g id="Image_xA0_74_xA0_Image_00000008118791115091437130000015013259112426627235_" class="st0">
	</g>
	<g id="Image_xA0_75_xA0_Image_00000010285256329030756970000015146377072696135570_" class="st0">
	</g>
	<g id="Layer2_copy_5_xA0_Image_00000017508023059124127950000016666852836481040533_">
	</g>
</g>
<g id="Layer_2_xA0_Image_00000104671783518477075520000012516701074610247560_">
</g>
<g id="Image_xA0_80_xA0_Image_00000139999480265457857940000003087293924545790900_" class="st0">
</g>
<g id="sirius_milkyway_xA0_Image_00000058579720015810135280000009054620692556736658_">
	<path class="st4" d="M114.5,59.1c1.8-1.5,3-3.5,4.3-5.4c2.5-3.7,4.5-7.7,6.2-11.8c1.3-2.9,2.4-5.9,3.3-8.9c0.3-0.9,0.6-1.8,0.9-2.6
		c0.2-0.5,0.1-0.6-0.4-0.7c-2.5-0.7-4.9-1.5-7.3-2.3c-4.6-1.6-9.1-3.3-13.2-6.1c-5.3-3.6-9.3-8.5-12.1-14.2c-1.2-2.6,0.9-5.3,3-5.8
		c1.1-0.3,1.9-1,3-1.1c3.2-0.5,6,0.3,8.3,2.6c3.4,3.3,6.8,6.7,10.7,9.5c3.6,2.6,7.5,4.4,11.8,5.2c0.6,0.1,1.1,0.1,1.2-0.7
		c0.3-1.8,0.9-3.6,1.5-5.3c1-2.5,2.1-5,4.1-6.8c1.3-1.2,2.8-2.1,4.7-1.9c1.9,0.2,3.5-0.6,5.3-0.9c1.7-0.3,3.4,0,4.9,0.9
		c1.5,0.9,1.2,2.5,0.9,3.8c-0.7,3.3-1.8,6.6-2.9,9.8c-0.2,0.7-0.5,1.5-0.8,2.3c1.7-0.3,3.2-0.5,4.8-0.8c3.7-0.6,7.4-1.2,11.1-1.6
		c4.8-0.5,9.6-0.3,14.4-0.3c2.7,0,5.3,0,8,0.3c6.7,0.8,13.2,2.3,18.9,6.3c3.5,2.5,6.3,5.6,8.1,9.5c1.5,3.2,2.1,6.5,1.5,10.1
		c-1.5,10.3-5.6,19.6-12.1,27.6c-3.9,4.8-8.2,9.3-13.7,12.6c-3.2,1.9-6.6,3.2-10.5,2.7c-1.9-0.2-3.7-0.9-5.2-2
		c-1.9-1.4-4.1-2.4-6.3-3.1c-0.8-0.3-1.6-0.7-2.2-1.2c-0.6-0.4-1.1-0.4-1.8-0.2c-2.6,1-5.4,1.6-8.2,1c-1.8-0.3-3.3-1.1-4.6-2.4
		c-0.8-0.7-1.8-1-2.6-1.5c-1.8-1.1-2.8-0.3-4.1,0.7c-1.3,1-2.8,1.8-4.4,2.5c-3.7,1.7-7.2,1-10.2-1.6c-1.2-1.1-2.5-2.1-3.9-2.9
		c-1.7-1-3-2.5-3.8-4.4c-0.4,0.5-0.8,1-1.2,1.4c-3.1,3.6-6.6,6.5-11,8.2c-3.1,1.2-6.3,1.3-9.6,1.3c-2.3-0.1-4.5-0.4-6.6-1.2
		c-0.6-0.2-1.4-0.3-2,0.2c-3.1,1.9-6.4,3.2-10,3.5c-5.7,0.5-10.7-1.1-14.6-5.4c-1.8-2-2.5-4.4-2.8-7c-0.3-2.7-0.6-5.3-0.4-8
		c0.1-2,0.3-4,0.5-6c0.3-2.4,0.6-4.8,0.9-7.2c0.3-2.8,0.6-5.7,0.7-8.5c0-0.8,0.3-1.5,0.2-2.3c-0.2-1-0.7-1.2-1.6-0.8
		c-0.7,0.3-1.2,0.8-1.7,1.4c-2.1,2.7-3.5,5.8-4.4,9.1c-1.3,4.3-2.3,8.7-3.5,13.1c-0.7,2.7-1.2,5.5-2,8.2c-0.2,0.5-0.4,1-0.7,1.4
		c-0.5,0.6-0.9,1.3-1.1,2.2c-0.4,1.7-2.1,2.9-3.9,3.1c-3.9,0.3-6.7-1.5-7.9-5.3c-0.3-1.1-0.3-2.3-0.1-3.4c0.7-2.9,1.2-5.9,1.8-8.9
		c0.8-3.7,1.6-7.4,2.3-11.2c0.1-0.7,0.4-1.3,0.2-2c-0.5,0-0.5,0.4-0.6,0.7c-1.2,3.5-2.7,6.8-3.7,10.3c-1,3.5-2,6.9-2.8,10.4
		c-0.9,3.7-1.9,7.3-2.8,10.9c-0.6,2.7-1.3,5.4-1.8,8.2c-0.3,1.7-1.2,3.2-2.8,3.9c-0.4,0.2-0.7,0.5-0.8,0.9c-0.4,3-2.4,4.2-5.1,4.7
		c-2.9,0.5-5.6-0.8-7.1-3.4c-0.3-0.4-0.4-0.9-0.4-1.4c-0.3-3.2,0.9-6.1,1.6-9.2c0.4-1.6,0.9-3.2,1.3-5c-1.1,0.2-1.8,0.9-2.8,1.1
		c-0.2,0-0.2,0.2-0.2,0.3c-0.8,2.2-2.5,3.4-4.9,3.7c-3.8,0.5-6.4-1.6-8.8-4.1c-2.9-3.1-4.2-7-5-11.2c-0.6-3-0.4-6-0.2-9
		c0.1-2,0.6-4,1.3-5.8c1.4-4.3,3-8.5,5.5-12.3c2.3-3.5,4.9-6.8,8.5-9.1c1.3-0.8,2.8-1.5,4.3-1.8c1.4-0.3,2.7-1,4.1-1.2
		c2.7-0.5,5.3-0.2,7.8,1c2.3,1.1,4.4,2.6,5.9,4.8c0.4,0.5,0.7,0.5,1-0.1c2.1-3.5,5.2-5.8,8.9-7.1c3.2-1.1,9.3,0,11.2,4.2
		c1.5-1.6,3.1-2.9,5.2-3.5c3.4-1,6.8-1.3,10.1,0.2c2.6,1.2,4.6,3.2,6.1,5.6c1.7,2.6,2,5.4,2.1,8.4c0.1,3.6-0.4,7.2-0.7,10.7
		c-0.2,2.2-0.3,4.4-0.7,6.5c-0.2,1.1-0.2,2.3-0.3,3.4c-0.3,2.3,0.6,4.4,2.2,6.1c0.3,0.3,0.7,0.3,1,0.2c0.8-0.2,1.5-0.4,2.2-0.8
		c0.5-0.3,0.7-0.6,0.5-1.2c-1.1-2.8-1-5.8-0.7-8.7c0.8-9.4,4.2-17.8,11.1-24.5c1.8-1.7,3.8-3.3,6.2-3.9c2.7-0.6,5.3-0.3,7.8,0.9
		c0.2,0.1,0.5,0.3,0.8,0.4c3.7,1.1,5.4,3.8,6.2,7.4c0.4,1.7,0.6,3.4,0.7,5.2c0.4,5.7-1.2,10.9-3.8,15.9c-0.1,0.1-0.1,0.2-0.1,0.3
		c-0.1,0.1-0.4,0.1-0.2,0.3C114.3,59.4,114.4,59.3,114.5,59.1z M102.2,31.4c-0.1,0.1-0.2,0.2-0.3,0.2c0,0,0.1,0,0.1,0
		C102.1,31.6,102.3,31.6,102.2,31.4c0.1,0,0.1,0,0.2,0c0,0,0,0,0.1,0C102.4,31.4,102.3,31.4,102.2,31.4z M151.5,71.8
		c0.5,0.6,0.9,1.2,1.2,1.8c2,3.5,4.9,5.5,9.1,5.2c2.8-0.2,5.5-0.8,7.6-2.8c0.9-0.8,1.8-0.7,2.6,0.3c0.2,0.3,0.4,0.6,0.7,1
		c1.5,2.4,3.6,4.1,6.1,5.4c1.4,0.8,2.9,1.3,4.6,1.4c3.4,0.2,6.4-0.9,9.3-2.7c7.2-4.6,12.9-10.7,17.4-17.9c3.9-6.2,6.5-13,7.7-20.2
		c0.4-2.4,0.5-4.8,0-7.2c-0.8-3.5-2.6-6.4-5-9c-3.6-4-8.2-6.4-13.3-7.9c-4.9-1.5-9.8-2.1-14.9-2.2c-3.1-0.1-6.1,0.3-9.1,0.5
		c-3.3,0.3-6.6,0.9-9.9,1.4c-2.9,0.5-5.7,0.9-8.6,1.3c-2.1,0.3-4.2,0.5-6.3,0.8c-0.7,0.1-0.5-0.2-0.4-0.6c0.9-2.7,1.9-5.3,2.7-8
		c0.7-2.2,1.2-4.4,1.8-6.6c0.3-1.4,0-2.1-1-2.5c-1.6-0.6-3.1-0.8-4.8-0.3c-2.5,0.8-4,2.7-5.2,4.9c-1.7,3.2-2.6,6.6-3.4,10.1
		c-0.3,1.4-0.9,1.8-2.3,1.5c-2.1-0.5-4.3-0.9-6.4-1.3c-3.6-0.7-6.9-2.2-9.9-4.3c-4.4-3-8.2-6.7-11.9-10.4c-1.9-1.9-4.1-2.7-6.7-2.6
		c-2.2,0.1-4,1.5-3.8,3.7c0.1,0.8,0.5,1.4,0.9,2.1c5,9.6,13.2,15.3,23.1,18.7c4,1.4,7.9,2.7,12,3.6c0.2,0,0.4,0.1,0.2,0.3
		c-0.3,0.4,0,0.8-0.2,1.2c-0.8,2.4-1.5,4.8-2.4,7.2c-1.1,3-2.4,5.9-3.7,8.8c-2.4,5.4-5.3,10.4-8.9,15c-2,2.5-4.3,4.9-7,6.7
		c-2,1.3-4.2,2.1-6.5,2.6c-0.6,0.1-1.3,0.4-1.7-0.3s0.3-1,0.7-1.4c2.2-2.2,3.9-4.8,5.6-7.4c3.8-6.1,6.4-12.5,5.7-19.9
		c-0.1-1.3-0.4-2.7-0.6-4c-1.1-7.2-9-8.6-13.5-5.7c-4.1,2.7-6.9,6.3-9.4,10.4c-1.5,2.6-2.8,5.3-3.6,8.2c-0.8,2.7-1.4,5.4-1.6,8.2
		c-0.3,3.3,0.3,6.7-0.4,10.1c-0.5,2.6-3.8,4-5.6,3.1c-1.9-0.9-2.4-2.7-2.8-4.5c-0.8-3.6,0-7.2,0.2-10.7c0.1-2,0.5-4,0.6-6
		c0.1-1.8,0.4-3.5,0.4-5.3c0.1-3,0.4-5.9-0.6-8.9c-1.7-4.6-6.2-8.5-11-8.7c-4.3-0.2-8,1-10.8,4.5c-0.4,0.5-0.9,1-1.5,0.8
		c-0.5-0.2-0.7-0.7-0.9-1.3c-0.4-1.4-1.2-2.5-2.7-3.1c-1.1-0.4-2.2-1-3.4-1.2c-1.5-0.3-3.1-0.3-4.5,0.4c-2.7,1.3-4.8,3.4-6.3,5.9
		c-0.6,1-1.1,2.1-1.7,3.2c-0.6,1.2-1.2,1.2-2.1,0.3c-0.5-0.5-0.9-1.1-1.3-1.7c-1.8-2.4-4-4.3-6.8-5.6c-2.1-1-4.3-1.3-6.5-0.9
		c-3.1,0.6-5.9,2.2-8.1,4.5C6,41.1,2.2,49.6,1.1,59.5c-0.5,4.4,0.2,8.7,1.9,12.8c1.3,3.2,3.3,5.8,6.3,7.6c2.4,1.4,4.8,1.5,7.2,0.2
		c1.5-0.8,2.4-2.9,1.2-4.6c-0.4-0.7-1-1.2-1.5-1.7c-3.6-3-5.6-6.7-5.8-11.4c-0.2-4.9,0.4-9.5,2.6-14c1.5-3.1,3.4-6,6.3-8
		c3-2.1,6.1-0.7,7.3,2.3c1.3,3.3,1.8,6.7,1.7,10.2c-0.1,4.2-1.1,8.2-2.1,12.3c-1,4.1-2,8.1-3,12.1c-0.6,2.4-1.5,4.8-2,7.3
		c-0.5,1.9-1.2,3.9-0.9,5.9c0.1,0.7,0.1,1.4,0.6,1.9c1.5,1.9,3.4,2.8,5.9,2.4c2.2-0.4,3.8-1.5,4.2-3.8c0.7-3.9,1.6-7.8,2.7-11.7
		c1.6-6.2,3-12.4,4.8-18.5c1-3.4,2.3-6.7,3.5-10.1c0.7-1.9,1.5-3.7,2.1-5.6c0.3-1.2,0.8-2.5,1.9-3.3c1-0.8,2-0.5,2.4,0.7
		c0.2,0.6,0.3,1.2,0.2,1.8c-0.3,1.8-0.6,3.7-0.9,5.5c-0.3,1.8-0.8,3.5-1.1,5.3c-0.6,2.9-1.3,5.8-1.8,8.8c-0.4,1.9-1,3.9-1,5.9
		c0,4.1,3.5,6.4,7.1,5.9c1.5-0.2,2.5-1.1,2.9-2.7c0.6-2.8,1.4-5.5,2-8.2c1.2-4.9,2.4-9.8,3.8-14.6c1-3.6,2.6-6.9,4.9-9.9
		c0.9-1.2,1.9-2.4,3.3-3c1-0.4,1.8-0.2,2.4,0.6c0.7,1.1,1,2.5,0.8,3.7c-0.2,1.4-0.2,2.8-0.3,4.1c-0.2,3.1-0.6,6.1-0.9,9.1
		c-0.5,3.6-1,7.2-1.1,10.8c-0.1,2.1-0.2,4.2,0.1,6.3c0.8,5.5,6.7,10.3,12.3,10.6c4.8,0.2,9.3-0.9,13.4-3.4c0.9-0.5,1.7-0.6,2.7-0.3
		c3.8,1.4,7.8,1.6,11.7,1c5.8-0.8,10.3-4.1,14.1-8.4c2.1-2.3,3.9-4.9,5.9-7.3c0.2-0.3,0.4-0.7,0.8-0.5c0.4,0.2,0.5,0.6,0.4,0.9
		c-0.3,1.3-0.2,2.6,0,3.9c0.3,1.9,0.5,3.8,1.5,5.4c2.4,4.1,7.3,6.5,12.3,3.8C146.6,76,149.2,74.2,151.5,71.8z M23.5,71.7
		c0.8-3.1,1.5-6,2.1-8.9c0.6-2.8,1.2-5.5,1.5-8.3c0.3-3.2,0-6.3-0.9-9.3c-0.4-1.5-0.8-3-2.1-4c-0.5-0.4-0.9-0.5-1.4,0
		c-2.4,2.4-4.1,5.3-5.2,8.5c-1.1,3.2-1.4,6.5-1.2,9.9c0.1,2.5,1,4.7,2.4,6.8C20.2,68.3,22.5,69.2,23.5,71.7z M107.1,69.5
		c0.2,0.2,0.4,0.2,0.6,0.2c2.1-0.6,4.2-1.3,5.9-2.6c3.9-2.8,6.8-6.4,9.3-10.4c5.3-8,8.8-16.9,11.6-26c0.1-0.4,0.2-0.8-0.3-0.8
		c-0.8-0.1-1.6-0.7-2.5-0.4c-0.1,0-0.1,0.2-0.1,0.3c-0.1,0.8-0.4,1.5-0.7,2.3c-2.5,8-5.7,15.6-10.2,22.6c-2.8,4.3-6.1,8.2-10.3,11.1
		C109,66.7,108.1,68.3,107.1,69.5z M19.3,41.9c-0.8,0.2-1.1,0.6-1.4,0.9c-1.8,2-3.2,4.2-4.3,6.6c-1.4,3.2-2.1,6.6-2.3,10.1
		c-0.2,4.6,0.8,8.9,4.2,12.3c1.2,1.2,2.7,2.1,3.4,3.7c0,0.1,0.2,0.2,0.3,0.2c1.4,0.1,2.8-2,2.2-3.3c-0.4-1-1.2-1.6-2-2.3
		c-2.4-2.1-4.2-4.6-4.8-7.7c-1-4.9-0.5-9.8,1.3-14.5C16.8,45.8,17.9,44,19.3,41.9z M101.6,32c-4.9,1.6-12.7,14-12.9,20.6
		c1.1-4.1,2.6-7.9,4.8-11.4C95.6,37.7,98.2,34.5,101.6,32z M81.6,69.6c0.5,1.3,1.3,1.9,2.3,1.8c1.8-0.2,2.8-0.9,3-2.4
		C85.2,70,83.5,70.4,81.6,69.6z"/>
	<path class="st4" d="M36.5,36.8c-0.3,0.2-0.5-0.2-0.6-0.4c-1.4-1.8-2.7-3.6-4.5-5c-0.8-0.6-1.6-1.1-2.5-1.6c0.5-0.2,0.9,0,1.2,0.1
		c2.7,1.1,4.8,3,6.6,5.3c0.2,0.2,0.3,0.5,0.4,0.7C37,36.3,36.8,36.7,36.5,36.8z"/>
	<path class="st5" d="M144.7,4.8c-0.8,1.3-1.6,2.4-2.1,3.6c-1.3,2.8-2.1,5.8-2.8,8.8c-0.4,1.5-0.3,1.5-1.9,1.2
		c-0.4-0.1-0.8-0.2-1.1-0.2c-0.4-0.1-0.5-0.2-0.4-0.6c0.9-3.7,1.9-7.5,4.3-10.6C141.6,5.8,142.8,4.9,144.7,4.8z"/>
	<path class="st4" d="M186.9,119.8c1.2-1.8,2-3.5,2.7-5.2c2.4-5.5,4.3-11.2,5.6-17.1c0.6-2.8,1-5.7,1.4-8.6c0.3-2.2,0.3-4.5,1.4-6.5
		c0.9-1.8,2.2-3.2,4.3-3.3c2.2-0.1,3.9,0.9,5.2,2.6c0.3,0.3,0.4,0.8,0.9,0.2c1.4-1.7,4.2-1.6,6.1-0.4c2.1,1.4,3,3.2,3.1,5.7
		c0.1,1.3,0.3,2.6,0.2,4c-0.3,3.2-0.4,6.4-1,9.6c-0.9,5-2.2,9.9-3.8,14.7c-1.5,4.5-3.7,8.8-5.9,13c-2.1,4-4.5,7.8-7,11.6
		c-2.4,3.4-5,6.7-7.8,9.8c-3,3.3-6.2,6.3-9.6,9.2c-2.8,2.3-5.7,4.4-9.2,5.6c-2.2,0.7-4.4,0.4-6.6-0.2c-4.5-1.1-8-3.6-10.5-7.5
		c-0.7-1.1-1.9-1.5-2.8-2.4c-1.1-1.1-2.1-2.3-2.9-3.6c-0.4-0.5-0.6-0.5-1-0.1c-1.1,0.9-1.6,2.2-2.2,3.4c-1.5,3.3-3.1,6.6-5.3,9.5
		c-1.9,2.5-4.5,4.1-7.5,5.2c-5.4,1.9-11.5-0.4-14.2-4.5c-0.4-0.5-0.6-0.7-1.3-0.2c-2.1,1.4-4.3,2.7-6.7,3.7
		c-6.1,2.6-11.8,1.1-15.7-3.7c-1.1-1.4-2.2-2.8-2.8-4.4c-0.3-0.8-0.6-0.6-1-0.1c-1.8,1.9-3.7,3.6-6,4.9c-1.5,0.9-3.1,1.5-4.9,1.6
		c-4.6,0.4-7.7-2.2-10.6-5.3c-0.9-0.9-0.8-1-1.6,0.1c-2.3,3.6-5.2,6.4-9.4,7.7c-3.3,1-6.4,0.7-9.5-0.8c-0.8-0.4-1.3-0.4-1.9,0.3
		c-2.6,2.9-5.8,5-9.8,5.6c-3.8,0.6-7.7,0.9-11.4-0.5c-5.1-1.9-9-5.1-11.1-10.1c-1-2.3-0.8-4.8-0.3-7.3c0.5-2.4,1.7-4.5,3.5-6.1
		c0.5-0.4,0.5-1.1,0.7-1.6c1.6-4.2,4.9-6.4,9.1-7.3c2.7-0.6,5.4-0.9,8.2-0.3c0.5,0.1,0.9,0,0.8-0.7c-0.2-1.6-0.5-3.2-0.7-4.8
		c-0.1-0.7-0.2-1.5-0.3-2.2c-0.1-1.1-0.6-1.6-1.5-1.9c-8.4-2.9-14.9-8.5-20.7-14.9c-2.1-2.3-3.9-4.9-5.5-7.6
		c-1.8-3.1-0.4-7.1,3.5-7.5c0.4,0,0.5-0.2,0.7-0.5c1.6-3.1,6.9-3,8.7-0.2c1.9,2.9,4,5.5,6.5,7.9c2.1,2,4.3,3.9,6.9,5.5
		c0.1-1.5,0-2.9,0.2-4.3c0.9-4.8,2-9.5,5.7-13.1c1-1,1.9-2.2,3.2-3c2.2-1.5,4.6-1.3,7-0.8c3.5,0.8,5.8,3.1,7.6,6.1
		c2,3.5,3.2,7.2,3.8,11.1c0.5,3.9,0.6,7.8-1,11.5c-1.3,2.8-2.5,5.8-4.5,8.2c-1,1.3-2.3,2.2-3.8,2.9c-0.5,0.2-0.9,0.5-0.7,1.3
		c0.3,1,0.2,2.1,0.3,3.2c0.2,2.8,0.5,5.7,1.1,8.4c0.6,2.5,2.3,3.1,4.8,2c1.7-0.7,2.9-2.2,4-3.6c2-2.5,2.9-5.4,3.6-8.5
		c1.3-5.3,2.2-10.7,4.4-15.8c2.1-5,5.1-9.3,9.1-13c2.5-2.3,5.3-4.3,8.3-5.9c3.2-1.7,6.5-2.5,10.1-2.2c3.5,0.2,6.8,1.1,9.7,3.2
		c1.1,0.8,1.9,1.8,2.5,2.9c0.5,0.8,0.9,1.7,1.4,2.5c2,3.4,2.3,7.1,1.5,10.9c-1.1,5-3.1,9.8-4.6,14.7c-1.6,5.1-3.6,10-4.7,15.3
		c-0.4,2-0.8,2,1.6,2c2.2-0.1,3.8-1.4,5.5-2.7c0.2-0.2,0.2-0.4,0.2-0.7c0-2.2-0.2-4.4,0-6.5c0.2-2.8,0.4-5.6,0.9-8.4
		c0.4-2.9,1.1-5.7,2-8.5c1.7-5.4,3.6-10.8,6.3-15.8c2.3-4.5,5.3-8.4,9.1-11.7c2.6-2.2,5.6-3,9-2.3c0.5,0.1,1.1,0.4,1.5,0.7
		c1.3,1.2,2.8,1.8,4.2,2.7c3.4,2.2,5.1,5.3,5.8,9.3c0.7,4.5-0.2,8.8-1,13.2c-0.9,4.5-2.4,8.8-4.2,13c-0.1,0.3-0.4,0.8,0.2,0.8
		c1.6,0.1,3.2,0.8,4.9,0.4c2.2-0.5,3.5-1.9,4.9-3.4c1.9-2.1,3.3-4.6,4.6-7.1c2.6-4.7,4.8-9.5,6.3-14.7c0.4-1.2,0.7-2.4,1-3.6
		c0.6-2.5,2.3-4,4.8-4.1c2.6,0,5,0.7,6.6,2.9c0.3,0.4,0.7,0.2,1,0.2c1.8,0,3.3,0.7,4.6,1.7c1.7,1.2,2.1,3.2,2.2,5.1
		c0.1,1.8,0.1,3.7,0,5.5C187,117.2,186.6,118.3,186.9,119.8z M77.5,114.1c0.2-0.1,0.3-0.2,0.2-0.4c0.4,0,0.6-0.4,0.8-0.6
		c2.3-2.7,5-5,8-7c4-2.7,8.3-4.6,13.2-4.7c1.6,0,3.2,0.2,5.1,0.5c-0.6-0.5-1.1-0.6-1.5-0.7c-4.2-1.2-8.2-0.9-12.1,1
		c-5.4,2.7-10,6.4-13.4,11.4C77.5,113.7,77.5,113.9,77.5,114.1c-0.1,0-0.2,0-0.1,0.2C77.4,114.2,77.5,114.1,77.5,114.1z
		 M186.1,138.2c0.3-3.3-0.3-6.4-0.2-9.4c0.1-1.9-0.3-3.8-0.2-5.7c0.1-1.9-0.2-3.9,0-5.8c0.2-2.4,0.5-4.7,0.1-7.1
		c-0.2-1.3-0.4-2.7-1.5-3.7c-1.6-1.4-3.6-2-5.6-1.6c-1.4,0.3-2.7,0.9-3,2.8c-0.5,2.8-1.5,5.6-2.5,8.3c-1.7,4.5-3.7,8.9-6.1,13.1
		c-1.7,2.9-3.5,5.9-5.9,8.2c-2.2,2.1-4.7,3.3-7.8,2.7c-1.6-0.3-3.3-0.5-4.9-0.7c-1.8-0.2-3.7-0.3-5.5-0.4c-0.9-0.1-1.2-0.6-0.8-1.3
		c0.9-2,2-3.9,2.9-5.9c0.8-1.9,1.6-3.8,2.2-5.8c1-2.9,1.7-5.9,2.3-9c0.7-3.5,1-7.1,0.5-10.7c-0.4-3.6-2.2-6.3-5.1-8.4
		c-0.5-0.3-1-0.7-1.6-0.8c-2.7-0.6-5.1,0-7.3,1.7c-3.2,2.4-5.7,5.4-7.8,8.7c-3.2,5-5.5,10.4-7.4,16c-1.4,4.3-2.8,8.6-3.4,13
		c-0.5,3.5-1,7.1-1,10.7c0,1.9,0,3.9,0,5.8c0,0.8-0.3,1.4-0.9,1.8c-1.9,1.4-3.8,2.6-6.2,3.1c-3.1,0.6-6.2-1.4-6.1-4.8
		c0.1-2,0.6-4,1-5.9c1-4.7,2.8-9.2,4.2-13.8c1.6-4.8,3.4-9.5,4.7-14.4c0.9-3.6,0.9-7.1-0.8-10.5c-0.9-1.9-2.5-3.2-4.2-4.1
		c-1.6-0.7-3.4-1.3-5.2-1.6c-2.3-0.3-4.6-0.3-7,0.1c-4.4,0.9-8,3.3-11.5,6c-6.2,4.9-10.4,11.1-12.8,18.6c-1.4,4.4-2.4,9-3.4,13.5
		c-0.8,3.3-1.8,6.6-3.9,9.3c-1.7,2.2-3.6,4.3-6.5,5.2c-2.7,0.8-5.1-0.7-5.8-2.6c-0.4-1.1-0.6-2.2-0.8-3.3c-0.5-3-0.7-6-1-9
		c-0.2-1.9-0.2-3.7-0.5-5.6c-0.2-1.8,0-2.1,1.7-2.5c2.1-0.4,3.9-1.3,5.3-2.9c2.7-2.9,3.9-6.3,4.2-10.2c0.2-2.6,0-5.2-0.5-7.8
		c-0.6-3.3-1.8-6.4-3.4-9.3c-0.9-1.6-2-3.1-3.4-4.3c-2.7-2.1-6.8-2.8-9.5-1.4c-1.3,0.7-2.5,1.7-3.2,3c-2.4,4.2-3.6,8.6-3.6,13.4
		c0,2.3-0.2,4.6,0.2,6.9c0.1,0.8-0.7,1.3-1.5,1c-0.4-0.2-0.8-0.5-1.2-0.7c-4.2-2.3-8-5.2-11.3-8.7c-2.3-2.4-4.4-5-6.2-7.8
		c-1-1.4-2.4-2-4-1.8c-1.4,0.2-2.4,1.1-2.8,2.4c-0.5,1.5,0.1,2.8,0.8,4c3.2,5.2,7.3,9.7,12,13.6c4.2,3.5,8.7,6.3,13.8,8.1
		c0.7,0.2,1.2,0.7,1.4,1.6c0.3,1.3,0.4,2.6,0.6,3.8c0.3,1.8,0.6,3.7,0.8,5.5c0.3,2.2,0.5,4.3,0.7,6.5c0.1,1-0.3,1.3-1.3,1.1
		c-1.9-0.5-3.7-0.9-5.7-1.1c-2.6-0.3-5-0.1-7.5,0.5c-3.6,0.9-6.6,2.7-8.1,6.4c-1.1,2.8-1.4,5.8-0.3,8.5c1.5,3.6,4.4,6.2,7.7,8.2
		c2.6,1.5,5.4,2,8.3,2.1c5.6,0.2,10.6-1.3,14.4-5.6c0.8-0.9,1.7-1.2,2.8-0.7c1.4,0.6,2.8,1.2,4.4,1.4c3.5,0.3,6.5-0.8,9.3-3
		c2.1-1.6,3.5-3.7,4.9-5.8c0.6-1,1.3-1,1.9-0.1c1.2,1.8,2.8,3.1,4.6,4.3c3.2,2.1,6.4,2.3,9.7,0.4c2.5-1.5,4.8-3.2,6.7-5.5
		c0.7-0.9,1.8-0.8,2.2,0.2c0.8,2.1,2.1,3.9,3.6,5.6c3.4,3.7,7.5,4.7,12.3,3.2c2.9-0.9,5.4-2.6,8-4.1c1.5-0.9,1.8-0.8,2.8,0.6
		c2.8,4,8.5,5.7,13,4c3.7-1.4,6.6-3.8,8.6-7.3c1.6-2.8,2.9-5.8,4.4-8.7c1.1-2.1,2.7-3.1,5-3.1c0.6,0,0.9,0.2,1.2,0.8
		c0.7,1.5,1.4,3,2.2,4.4c2.5,4.6,6,8,11.2,9.3c3,0.8,5.9,0.7,8.6-0.8c1.6-0.9,3.1-1.8,4.6-3c8.2-6.4,15.1-14.1,20.8-22.9
		c3.4-5.3,6.5-10.9,9.1-16.7c1.7-3.8,2.9-7.8,4-11.7c0.9-3.4,1.7-6.9,2-10.5c0.3-3,0.7-5.9,0.6-8.9c-0.1-1.6-0.1-3.3-1.1-4.7
		c-1.1-1.7-2.6-2.6-4.7-2.3c-1.6,0.2-2.3,1.3-2.9,2.6c-1.1,2.4-1,5-1.4,7.6c-0.3,2.1-0.6,4.3-1,6.4c-1.2,6-3.1,11.8-5.3,17.6
		c-2.2,5.7-5.3,10.8-8.7,15.9C190.1,134.3,188.5,136.4,186.1,138.2z M187,129.6c0.1,0,0.2,0,0.3,0c0,1.7,0,3.4,0,5.2
		c0,0.2-0.1,0.5,0.1,0.6c0.3,0.2,0.4-0.1,0.6-0.3c0.6-0.6,1.1-1.3,1.6-1.9c8.4-11.7,13.5-24.7,15.6-38.9c0.4-2.7,0.6-5.3,1.1-8
		c0.4-1.8-0.3-3.1-1.7-4.1c-1.9-1.4-3.7-0.9-4.8,1.2c-0.7,1.4-0.9,2.9-1,4.4c-0.4,3.6-0.8,7.1-1.6,10.6c-2.1,8.8-4.9,17.2-9.8,24.9
		c-0.4,0.7-0.6,1.3-0.5,2.1C187,126.7,187,128.1,187,129.6z M177.2,104.3c-1.3-1-2.6-1.7-4-1.6c-2.3,0.1-3.2,0.9-3.5,3.1
		c-0.1,0.4-0.1,0.8-0.3,1.2c-1.7,6-4.1,11.7-7.1,17.1c-1.8,3.2-3.7,6.5-6.5,9.1c-1.8,1.7-3.9,2.8-6.5,2.5c-1.2-0.1-2.4-0.4-3.6-0.6
		c-0.4-0.1-0.9-0.3-1.2,0.2c-0.4,0.8-0.9,1.5-1.1,2.4c3.3,0.3,6.6,0.4,9.8,1.1c3.1,0.6,5.5-0.4,7.6-2.6c1.6-1.7,3-3.6,4.2-5.6
		c4.3-7.1,7.8-14.5,9.7-22.6C175,106.4,175.3,104.9,177.2,104.3z M139.6,95.8c-0.1-0.2-0.4-0.3-0.6-0.3c-2.5-0.6-4.6,0.2-6.6,1.7
		c-3.7,3-6.5,6.7-8.7,10.9c-2.6,4.8-4.4,9.8-6,14.9c-1.5,4.6-2.4,9.2-2.8,14c-0.3,3.2-0.4,6.5-0.2,9.7c0,0.7,0.1,1.4-0.5,2
		c-2.6,2.3-5.4,4-9,3.4c-0.4-0.1-0.6-0.1-0.6,0.4c-0.4,2.3,1.3,4.4,3.7,4.4c2.6,0,4.6-1.3,6.6-2.8c0.6-0.4,0.8-0.9,0.8-1.6
		c0-3.3-0.2-6.5,0.2-9.8c0.2-2.1,0.3-4.2,0.7-6.3c0.9-5.1,2.4-10.1,4.2-15c2.2-6.2,4.9-12.2,9-17.5
		C132.2,100.4,135.1,97.1,139.6,95.8z M36.3,119.7c0-1,0-1.8,0-2.6c0-0.7-0.2-1-0.8-1.4c-4.7-2.9-8.6-6.5-12-10.8
		c-0.9-1.2-1.8-2.4-2.6-3.6c-1-1.3-3.3-1.6-4.4-0.5c-0.2,0.2-0.6,0.4-0.1,0.7c1.1,0.6,1.7,1.6,2.4,2.6c2.2,3.1,4.7,6.1,7.5,8.7
		C29.4,115.5,32.6,117.9,36.3,119.7z M65.7,145.2c-0.3,0.4-0.6,0.7-0.9,1.1c-1.4,1.6-2.9,2.8-4.9,3.6c-3,1.1-5.8-0.7-6.5-2.8
		c-0.4-1.1-0.7-2.3-0.8-3.5c-0.3-3-0.6-6.1-0.9-9.1c0-0.3,0.1-0.7-0.4-0.7c-0.6,0-0.4,0.4-0.5,0.7c-0.1,1.4,0.2,2.8,0.3,4.2
		c0,0.9,0.1,1.8,0.2,2.7c0.3,2.9,0.8,5.8,1,8.6c0.2,2.2,1.3,3.9,3.3,4.5c1.4,0.4,2.7-0.2,3.8-0.9C62.4,151.5,64.5,148.6,65.7,145.2z
		 M23.1,147.9c2.5-1.1,4.9-1.4,7.4-1.6c2.8-0.1,5.6,0.1,8.3,1.1c0.6,0.2,0.7,0,0.7-0.6c-0.2-1.2-0.3-2.4-0.4-3.6
		c0-0.4-0.3-0.5-0.7-0.5c-3.3-0.4-6.6-0.4-9.8,0.7C26.4,144.2,24.3,145.4,23.1,147.9z M61.8,112.5c-0.2-5.4-1.8-10.5-5.2-14.9
		c-2-2.7-5.7-3.8-8.7-3c0.1,0.2,0.2,0.2,0.4,0.2c2.5,0.1,4.6,1.1,6.5,2.7c1.9,1.6,3,3.8,4.1,5.9C60.4,106.3,61.3,109.4,61.8,112.5z"
		/>
	<path d="M151.5,71.8c-2.3,2.4-5,4.2-7.9,5.8c-4.9,2.8-9.8,0.3-12.3-3.8c-1-1.7-1.2-3.6-1.5-5.4c-0.2-1.3-0.4-2.6,0-3.9
		c0.1-0.3,0.1-0.7-0.4-0.9c-0.4-0.2-0.6,0.2-0.8,0.5c-2,2.4-3.8,5-5.9,7.3c-3.8,4.3-8.3,7.6-14.1,8.4c-3.9,0.5-7.9,0.3-11.7-1
		c-1-0.4-1.8-0.3-2.7,0.3c-4.1,2.5-8.6,3.6-13.4,3.4c-5.7-0.3-11.5-5.2-12.3-10.6c-0.3-2.1-0.2-4.2-0.1-6.3
		c0.1-3.6,0.6-7.2,1.1-10.8c0.4-3,0.8-6,0.9-9.1c0.1-1.4,0.1-2.8,0.3-4.1c0.2-1.2-0.1-2.6-0.8-3.7c-0.5-0.9-1.4-1.1-2.4-0.6
		c-1.4,0.6-2.4,1.8-3.3,3c-2.3,3-3.9,6.3-4.9,9.9c-1.4,4.8-2.6,9.7-3.8,14.6c-0.7,2.8-1.4,5.5-2,8.2c-0.4,1.6-1.3,2.5-2.9,2.7
		c-3.6,0.5-7.1-1.8-7.1-5.9c0-2,0.6-3.9,1-5.9c0.5-2.9,1.2-5.8,1.8-8.8c0.4-1.8,0.8-3.5,1.1-5.3c0.3-1.8,0.6-3.7,0.9-5.5
		c0.1-0.6,0-1.2-0.2-1.8c-0.4-1.2-1.5-1.5-2.4-0.7c-1,0.9-1.5,2.2-1.9,3.3c-0.6,1.9-1.4,3.8-2.1,5.6c-1.2,3.3-2.5,6.7-3.5,10.1
		c-1.8,6.1-3.2,12.3-4.8,18.5c-1,3.9-2,7.7-2.7,11.7c-0.4,2.4-2,3.4-4.2,3.8c-2.5,0.4-4.4-0.5-5.9-2.4c-0.5-0.6-0.5-1.2-0.6-1.9
		c-0.2-2.1,0.5-4,0.9-5.9c0.6-2.4,1.4-4.8,2-7.3c1-4,2.1-8.1,3-12.1c1-4,2-8.1,2.1-12.3c0.1-3.5-0.4-6.9-1.7-10.2
		c-1.2-3.1-4.2-4.4-7.3-2.3c-3,2-4.8,4.9-6.3,8c-2.2,4.4-2.8,9.1-2.6,14c0.2,4.7,2.2,8.4,5.8,11.4c0.6,0.5,1.1,1.1,1.5,1.7
		c1.2,1.7,0.4,3.8-1.2,4.6c-2.4,1.2-4.9,1.2-7.2-0.2c-3-1.8-4.9-4.4-6.3-7.6c-1.7-4.1-2.4-8.4-1.9-12.8c1-9.8,4.8-18.4,11.7-25.5
		c2.2-2.3,4.9-3.9,8.1-4.5c2.2-0.4,4.4-0.1,6.5,0.9c2.8,1.3,5,3.2,6.8,5.6c0.4,0.6,0.8,1.1,1.3,1.7c0.9,1,1.4,0.9,2.1-0.3
		c0.6-1,1.1-2.1,1.7-3.2c1.5-2.6,3.6-4.6,6.3-5.9c1.5-0.7,3-0.7,4.5-0.4c1.2,0.2,2.3,0.7,3.4,1.2c1.4,0.5,2.2,1.7,2.7,3.1
		c0.2,0.6,0.4,1.1,0.9,1.3c0.6,0.2,1.1-0.3,1.5-0.8c2.8-3.5,6.5-4.7,10.8-4.5c4.8,0.3,9.3,4.1,11,8.7c1.1,3,0.7,5.9,0.6,8.9
		c-0.1,1.8-0.3,3.5-0.4,5.3c-0.2,2-0.5,4-0.6,6c-0.2,3.6-1,7.2-0.2,10.7c0.4,1.7,0.9,3.6,2.8,4.5c1.8,0.9,5.1-0.5,5.6-3.1
		c0.7-3.4,0.1-6.7,0.4-10.1c0.2-2.8,0.9-5.5,1.6-8.2c0.8-2.9,2.1-5.6,3.6-8.2c2.4-4.1,5.3-7.7,9.4-10.4c4.6-3,12.4-1.5,13.5,5.7
		c0.2,1.3,0.5,2.6,0.6,4c0.7,7.4-1.9,13.8-5.7,19.9c-1.7,2.6-3.4,5.2-5.6,7.4c-0.3,0.3-1.1,0.7-0.7,1.4c0.4,0.7,1.1,0.4,1.7,0.3
		c2.3-0.5,4.5-1.3,6.5-2.6c2.8-1.8,5-4.1,7-6.7c3.7-4.6,6.6-9.6,9-15c1.3-2.9,2.6-5.8,3.7-8.8c0.9-2.3,1.6-4.8,2.4-7.1
		c0.1-0.4-0.1-0.8,0.2-1.2c0.1-0.2-0.1-0.3-0.2-0.3c-4.1-0.9-8.1-2.3-12-3.6c-10-3.4-18.1-9.1-23.1-18.7c-0.3-0.7-0.8-1.3-0.9-2.1
		c-0.3-2.2,1.6-3.6,3.8-3.7c2.6-0.1,4.8,0.7,6.7,2.6c3.8,3.7,7.5,7.4,11.9,10.4c3,2.1,6.3,3.6,9.9,4.3c2.1,0.4,4.3,0.8,6.4,1.3
		c1.3,0.3,2-0.1,2.3-1.5c0.8-3.5,1.7-6.9,3.4-10.1c1.2-2.2,2.6-4.1,5.2-4.9c1.7-0.5,3.3-0.3,4.8,0.3c1,0.4,1.3,1.1,1,2.5
		c-0.5,2.2-1.1,4.4-1.8,6.6c-0.8,2.7-1.8,5.4-2.7,8c-0.1,0.4-0.3,0.7,0.4,0.6c2.1-0.3,4.2-0.5,6.3-0.8c2.9-0.4,5.7-0.9,8.6-1.3
		c3.3-0.5,6.6-1.1,9.9-1.4c3-0.3,6.1-0.6,9.1-0.5c5,0.1,10,0.7,14.9,2.2c5.1,1.5,9.7,3.9,13.3,7.9c2.3,2.6,4.2,5.6,5,9
		c0.5,2.4,0.4,4.8,0,7.2c-1.2,7.3-3.8,14-7.7,20.2c-4.5,7.2-10.1,13.3-17.4,17.9c-2.8,1.8-5.9,2.9-9.3,2.7c-1.7-0.1-3.2-0.7-4.6-1.4
		c-2.5-1.3-4.6-3-6.1-5.4c-0.2-0.3-0.4-0.7-0.7-1c-0.8-1-1.6-1.2-2.6-0.3c-2.2,1.9-4.9,2.6-7.6,2.8c-4.1,0.3-7-1.7-9.1-5.2
		C152.4,72.9,152.1,72.3,151.5,71.8z M184.9,26.1c-3.3-0.1-6.7,0.4-10,0.9c-3.3,0.5-6.6,1.3-9.9,1.8c-5.5,0.9-11,1.8-16.5,2.5
		c-1.8,0.2-2.5,1.1-2.9,2.6c-1,3.2-2,6.5-2.9,9.7c-1.1,3.8-2.3,7.7-3.3,11.6c-0.6,2.3-1.2,4.6-1.1,7c0,1.2,0.4,2.4,0.6,3.7
		c0.2,1.3,0.9,2.6,2.1,2.9c1.3,0.3,2.6-0.4,3.6-1.4c0.5-0.5,1-1.1,1.4-1.7c3.6-4,6.5-8.4,8.6-13.4c2.3-5.4,5.5-10.2,9.6-14.4
		c3.1-3.2,6.7-4.4,11.1-3.3c3.7,0.9,6.4,3,8.6,5.9c1.3,1.7,1.6,3.7,1.5,5.7c-0.2,2.7-0.5,5.4-1.2,8c-1.1,4.1-1.9,8.2-3.1,12.2
		c-0.6,2.1-0.4,4,0.6,5.8c0.4,0.9,1.1,1.4,2.2,1.6c1.6,0.4,3.1,0,4.6-0.6c3.7-1.3,6.6-3.9,9.1-6.8c5.3-6.1,9.2-12.9,10.5-21
		c0.5-3.5,0-6.8-1.4-10c-2.1-4.5-5.8-6.8-10.4-8C192.6,26.5,188.8,26.1,184.9,26.1z M98.2,59.5c0,0.7,0,1.4,0.2,2.1
		c0.2,1.1,1.1,1.5,1.9,0.7c1.2-1.2,2.5-2.4,3.5-3.9c2.1-3.2,3.3-6.8,4.3-10.4c0.3-1.2,0.7-2.5,0.7-3.7c0-1.6-0.8-2.3-2.2-2
		c-0.8,0.2-1.2,0.8-1.6,1.4c-2.3,3.4-3.9,7.1-5.6,10.7C98.6,56,98.3,57.8,98.2,59.5z M173.5,49.4c0-0.3,0-0.6,0-0.8
		c0-0.5,0.1-1-0.4-1.3c-0.6-0.4-1.1,0-1.6,0.3c-1,0.7-1.9,1.5-2.7,2.5c-2.7,3.8-4.6,8.1-6.1,12.5c-0.5,1.6-0.8,3.2-0.1,4.8
		c0.7,1.8,2,2.1,3.4,0.8c0.5-0.4,0.9-0.9,1.2-1.4c1.9-2.6,3.2-5.5,4.2-8.5C172.5,55.4,173.5,52.5,173.5,49.4z"/>
	<path class="st5" d="M107.1,69.5c1.1-1.2,2-2.8,3.3-3.7c4.3-3,7.6-6.8,10.3-11.1c4.6-7,7.8-14.7,10.2-22.6c0.2-0.8,0.6-1.5,0.7-2.3
		c0-0.1,0-0.3,0.1-0.3c0.9-0.3,1.7,0.3,2.5,0.4c0.5,0.1,0.4,0.5,0.3,0.8c-2.8,9.1-6.4,18-11.6,26c-2.6,3.9-5.5,7.6-9.3,10.4
		c-1.8,1.3-3.9,2-5.9,2.6C107.4,69.7,107.3,69.8,107.1,69.5z"/>
	<path class="st5" d="M19.3,41.9c-1.4,2-2.5,3.9-3.3,6c-1.7,4.7-2.3,9.6-1.3,14.5c0.6,3.1,2.4,5.7,4.8,7.7c0.8,0.7,1.5,1.3,2,2.3
		c0.5,1.3-0.8,3.4-2.2,3.3c-0.1,0-0.3-0.1-0.3-0.2c-0.7-1.6-2.2-2.5-3.4-3.7c-3.4-3.4-4.4-7.6-4.2-12.3c0.2-3.5,0.8-6.9,2.3-10.1
		c1.1-2.4,2.5-4.6,4.3-6.6C18.2,42.5,18.5,42.1,19.3,41.9z"/>
	<path class="st5" d="M101.6,32c-3.4,2.5-5.9,5.7-8.2,9.2c-2.2,3.5-3.7,7.3-4.8,11.4C88.8,46,96.6,33.5,101.6,32z"/>
	<path class="st5" d="M81.6,69.6c1.9,0.8,3.6,0.3,5.3-0.6c-0.3,1.5-1.2,2.2-3,2.4C82.9,71.5,82.1,71,81.6,69.6z"/>
	<path d="M186.1,138.2c2.3-1.9,4-3.9,5.5-6.2c3.4-5,6.5-10.2,8.7-15.9c2.2-5.7,4.1-11.5,5.3-17.6c0.4-2.1,0.6-4.3,1-6.4
		c0.4-2.5,0.4-5.2,1.4-7.6c0.6-1.3,1.4-2.4,2.9-2.6c2-0.3,3.6,0.6,4.7,2.3c1,1.4,1,3.1,1.1,4.7c0.1,3-0.3,6-0.6,8.9
		c-0.3,3.6-1.1,7.1-2,10.5c-1.1,4-2.3,7.9-4,11.7c-2.6,5.8-5.6,11.4-9.1,16.7c-5.6,8.8-12.6,16.4-20.8,22.9c-1.4,1.1-3,2.1-4.6,3
		c-2.8,1.6-5.6,1.6-8.6,0.8c-5.3-1.3-8.7-4.8-11.2-9.3c-0.8-1.4-1.5-2.9-2.2-4.4c-0.3-0.6-0.6-0.8-1.2-0.8c-2.3,0-4,1-5,3.1
		c-1.5,2.9-2.8,5.8-4.4,8.7c-2,3.5-4.9,5.9-8.6,7.3c-4.5,1.7-10.2,0.1-13-4c-1-1.4-1.3-1.5-2.8-0.6c-2.6,1.5-5.1,3.2-8,4.1
		c-4.8,1.6-8.9,0.5-12.3-3.2c-1.5-1.6-2.8-3.4-3.6-5.6c-0.4-1-1.4-1.2-2.2-0.2c-1.8,2.3-4.1,4.1-6.7,5.5c-3.3,1.9-6.5,1.7-9.7-0.4
		c-1.8-1.2-3.4-2.4-4.6-4.3c-0.6-0.9-1.2-0.8-1.9,0.1c-1.4,2.1-2.9,4.2-4.9,5.8c-2.7,2.1-5.8,3.2-9.3,3c-1.6-0.1-3-0.7-4.4-1.4
		c-1.2-0.5-2-0.3-2.8,0.7c-3.8,4.4-8.8,5.8-14.4,5.6c-3-0.1-5.7-0.6-8.3-2.1c-3.4-2-6.3-4.5-7.7-8.2c-1.1-2.8-0.8-5.7,0.3-8.5
		c1.4-3.7,4.4-5.5,8.1-6.4c2.5-0.6,5-0.8,7.5-0.5c1.9,0.2,3.8,0.6,5.7,1.1c1,0.3,1.4,0,1.3-1.1c-0.2-2.2-0.4-4.4-0.7-6.5
		c-0.2-1.9-0.5-3.7-0.8-5.5c-0.2-1.3-0.3-2.6-0.6-3.8c-0.2-0.8-0.7-1.3-1.4-1.6c-5.2-1.8-9.7-4.6-13.8-8.1c-4.7-3.9-8.8-8.4-12-13.6
		c-0.8-1.2-1.3-2.5-0.8-4c0.5-1.4,1.5-2.2,2.8-2.4c1.6-0.3,3,0.3,4,1.8c1.9,2.7,3.9,5.4,6.2,7.8c3.3,3.4,7,6.4,11.3,8.7
		c0.4,0.2,0.8,0.5,1.2,0.7c0.8,0.3,1.6-0.2,1.5-1c-0.4-2.3-0.2-4.6-0.2-6.9c-0.1-4.8,1.2-9.3,3.6-13.4c0.8-1.3,1.9-2.3,3.2-3
		c2.7-1.4,6.8-0.8,9.5,1.4c1.5,1.2,2.5,2.7,3.4,4.3c1.7,2.9,2.8,6,3.4,9.3c0.5,2.6,0.7,5.2,0.5,7.8c-0.3,3.8-1.5,7.3-4.2,10.2
		c-1.5,1.5-3.3,2.4-5.3,2.9c-1.7,0.4-1.9,0.7-1.7,2.5c0.2,1.9,0.2,3.7,0.5,5.6c0.3,3,0.5,6,1,9c0.2,1.1,0.3,2.2,0.8,3.3
		c0.8,1.9,3.1,3.5,5.8,2.6c2.9-0.9,4.8-3,6.5-5.2c2.1-2.8,3.1-6,3.9-9.3c1-4.5,2-9.1,3.4-13.5c2.4-7.4,6.6-13.7,12.8-18.6
		c3.4-2.7,7.1-5,11.5-6c2.3-0.5,4.6-0.5,7-0.1c1.8,0.2,3.6,0.8,5.2,1.6c1.8,0.8,3.3,2.2,4.2,4.1c1.7,3.4,1.7,6.9,0.8,10.5
		c-1.3,4.9-3.1,9.6-4.7,14.4c-1.5,4.6-3.2,9.1-4.2,13.8c-0.4,2-0.9,3.9-1,5.9c-0.1,3.4,2.9,5.5,6.1,4.8c2.4-0.5,4.3-1.7,6.2-3.1
		c0.6-0.4,0.9-1,0.9-1.8c0-1.9,0-3.9,0-5.8c0-3.6,0.5-7.1,1-10.7c0.7-4.5,2-8.8,3.4-13c1.9-5.6,4.2-11,7.4-16
		c2.1-3.3,4.7-6.3,7.8-8.7c2.2-1.6,4.6-2.3,7.3-1.7c0.6,0.1,1.1,0.4,1.6,0.8c2.9,2.1,4.7,4.8,5.1,8.4c0.4,3.6,0.1,7.1-0.5,10.7
		c-0.6,3.1-1.3,6-2.3,9c-0.6,2-1.4,3.9-2.2,5.8c-0.8,2-1.9,3.9-2.9,5.9c-0.4,0.8-0.1,1.3,0.8,1.3c1.8,0.2,3.7,0.2,5.5,0.4
		c1.6,0.2,3.3,0.4,4.9,0.7c3.2,0.6,5.6-0.6,7.8-2.7c2.5-2.4,4.2-5.3,5.9-8.2c2.4-4.2,4.5-8.5,6.1-13.1c1-2.7,1.9-5.4,2.5-8.3
		c0.3-1.8,1.6-2.5,3-2.8c2.1-0.4,4,0.2,5.6,1.6c1.1,0.9,1.3,2.4,1.5,3.7c0.4,2.4,0,4.7-0.1,7.1c-0.1,1.9,0.2,3.9,0,5.8
		c-0.1,1.9,0.3,3.8,0.2,5.7C185.8,131.9,186.4,134.9,186.1,138.2z M103.1,117.2c0.1-0.4-0.2-1.1-0.2-1.8c-0.2-2.2-1.8-3.3-3.9-2.7
		c-3.9,1.2-6.8,3.9-9.3,6.9c-3.8,4.5-6.6,9.6-8.2,15.3c-0.8,3-1.6,6-1.9,9.2c-0.3,2.7,0.1,5.2,1.2,7.5c0.6,1.1,1.2,1.3,2.5,0.9
		c1.4-0.4,2.5-1.4,3.5-2.4c3.5-3.5,6.1-7.7,8.6-11.9c2.7-4.7,4.7-9.6,6.4-14.7C102.4,121.6,103.1,119.6,103.1,117.2z M126.6,143.4
		c0.9,0,1.4-0.5,1.9-1.2c0.6-0.8,1.2-1.6,1.8-2.5c3.6-5.2,6.7-10.5,8.8-16.5c1.5-4.5,3.2-9,2.9-13.9c-0.1-0.9-0.3-1.5-1.1-1.8
		c-0.8-0.3-1.6-0.3-2.3,0.5c-0.6,0.7-1.1,1.5-1.5,2.3c-1.4,2.5-2.4,5.1-3.6,7.7c-1.6,3.5-2.9,7.1-4,10.7c-0.9,3.1-1.8,6.2-2.3,9.4
		C127,139.7,126.2,141.4,126.6,143.4z M52.4,115.3c-0.2-2.3-0.6-5.1-2-7.7c-0.2-0.4-0.5-0.7-1-0.7c-1.2-0.1-1.9,0.6-2,1.9
		c-0.2,3.7-0.1,7.4,0.2,11.1c0.1,0.9,0,1.9,0.4,2.8c0.2,0.4,0.3,0.9,0.9,0.8c1.3-0.2,2.3-0.9,2.6-2.2
		C52.1,119.5,52.5,117.7,52.4,115.3z M168.4,150.4c2.3,0.1,3.7-1.1,4.8-2.8c1.6-2.5,2.1-5.3,2.8-8.1c0.3-1.3,0.6-2.6,0.4-4
		c0-0.3,0-0.6-0.4-0.8c-0.4-0.1-0.8-0.1-1.1,0.2c-0.1,0.2-0.3,0.4-0.4,0.6c-1.7,3.1-3.9,5.8-6.4,8.3c-0.9,0.9-1.8,1.7-2.7,2.6
		c-1,1-1,2.2,0.2,2.9C166.6,150,167.4,150.6,168.4,150.4z M139.8,142.3c-0.4,0.4-0.8,0.8-1.1,1.2c-1.6,2.1-3.1,4.1-4.6,6.2
		c-1.2,1.7-2.6,3.2-3.6,5c-0.5,0.9-0.6,1.8,0.2,2.4c0.8,0.6,1.4,0.1,2.1-0.3c2.6-1.6,4.1-4.1,5.4-6.8
		C139.5,147.8,140.1,145.2,139.8,142.3z M33.8,162.2c1.5,0.1,2.9-0.3,4.3-0.7c0.3-0.1,0.8-0.2,0.8-0.8c0-0.5-0.2-0.8-0.6-1
		c-2.5-1.2-5.2-1.8-8-2c-0.8-0.1-1.3,0.4-1.5,1c-0.3,0.6-0.1,1.2,0.4,1.7C30.4,161.8,31.9,162.4,33.8,162.2z"/>
	<path class="st5" d="M187,129.6c0-1.4,0-2.9,0-4.3c0-0.8,0.1-1.4,0.5-2.1c4.8-7.7,7.7-16.2,9.8-24.9c0.8-3.5,1.2-7,1.6-10.6
		c0.2-1.5,0.4-3,1-4.4c1.1-2.2,2.8-2.6,4.8-1.2c1.4,1,2,2.2,1.7,4.1c-0.5,2.6-0.8,5.3-1.1,8c-2.2,14.2-7.2,27.2-15.6,38.9
		c-0.5,0.7-1.1,1.3-1.6,1.9c-0.1,0.2-0.3,0.5-0.6,0.3c-0.2-0.1-0.1-0.4-0.1-0.6c0-1.7,0-3.4,0-5.2
		C187.2,129.6,187.1,129.6,187,129.6z"/>
	<path class="st5" d="M177.2,104.3c-1.9,0.7-2.2,2.2-2.6,3.8c-2,8.1-5.4,15.5-9.7,22.6c-1.2,2-2.6,3.9-4.2,5.6
		c-2.1,2.2-4.5,3.3-7.6,2.6c-3.2-0.7-6.4-0.8-9.8-1.1c0.2-0.9,0.7-1.6,1.1-2.4c0.3-0.6,0.8-0.3,1.2-0.2c1.2,0.2,2.4,0.4,3.6,0.6
		c2.6,0.2,4.6-0.8,6.5-2.5c2.8-2.6,4.6-5.8,6.5-9.1c3.1-5.4,5.4-11.1,7.1-17.1c0.1-0.4,0.2-0.8,0.3-1.2c0.3-2.2,1.2-3,3.5-3.1
		C174.6,102.6,175.9,103.3,177.2,104.3z"/>
	<path class="st5" d="M139.6,95.8c-4.5,1.3-7.4,4.6-10.1,8.1c-4.1,5.2-6.8,11.3-9,17.5c-1.8,4.9-3.2,9.9-4.2,15
		c-0.4,2.1-0.5,4.2-0.7,6.3c-0.4,3.3-0.2,6.5-0.2,9.8c0,0.7-0.2,1.2-0.8,1.6c-2,1.5-4,2.8-6.6,2.8c-2.4,0-4.1-2-3.7-4.4
		c0.1-0.5,0.3-0.5,0.6-0.4c3.7,0.6,6.4-1.1,9-3.4c0.6-0.5,0.6-1.3,0.5-2c-0.2-3.2-0.1-6.5,0.2-9.7c0.4-4.7,1.4-9.4,2.8-13.9
		c1.7-5.1,3.4-10.2,6-14.9c2.2-4.2,5-7.9,8.7-10.9c1.9-1.6,4.1-2.3,6.6-1.7C139.2,95.5,139.4,95.5,139.6,95.8z"/>
	<path class="st5" d="M36.3,119.7c-3.7-1.8-6.9-4.2-9.9-6.9c-2.9-2.6-5.3-5.6-7.5-8.7c-0.7-1-1.3-2-2.4-2.6
		c-0.5-0.3-0.1-0.5,0.1-0.7c1.1-1,3.4-0.8,4.4,0.5c0.9,1.2,1.8,2.4,2.6,3.6c3.3,4.3,7.3,8,12,10.8c0.5,0.3,0.8,0.7,0.8,1.4
		C36.3,118,36.3,118.8,36.3,119.7z"/>
	<path class="st5" d="M65.7,145.2c-1.2,3.4-3.2,6.3-6.2,8.4c-1.1,0.8-2.4,1.3-3.8,0.9c-2-0.6-3.2-2.3-3.3-4.5
		c-0.3-2.9-0.7-5.8-1-8.6c-0.1-0.9-0.1-1.8-0.2-2.7c-0.1-1.4-0.4-2.8-0.3-4.2c0-0.3-0.1-0.8,0.5-0.7c0.5,0,0.4,0.4,0.4,0.7
		c0.3,3,0.5,6.1,0.9,9.1c0.1,1.2,0.5,2.3,0.8,3.5c0.7,2.1,3.5,4,6.5,2.8c2-0.8,3.5-2,4.9-3.6C65.1,145.9,65.4,145.5,65.7,145.2z"/>
	<path class="st5" d="M23.1,147.9c1.2-2.6,3.3-3.7,5.5-4.5c3.2-1.1,6.5-1.1,9.8-0.7c0.3,0,0.6,0.1,0.7,0.5c0.1,1.2,0.3,2.4,0.4,3.6
		c0.1,0.6,0,0.8-0.7,0.6c-2.7-0.9-5.5-1.2-8.3-1.1C28,146.5,25.6,146.8,23.1,147.9z"/>
	<path class="st5" d="M77.7,113.6c3.4-5,8-8.8,13.4-11.4c3.9-1.9,7.9-2.2,12.1-1c0.4,0.1,0.9,0.2,1.5,0.7c-1.9-0.3-3.5-0.6-5.1-0.5
		c-4.9,0.1-9.2,1.9-13.2,4.7c-2.9,2-5.6,4.3-8,7C78.3,113.2,78.1,113.6,77.7,113.6L77.7,113.6z"/>
	<path class="st5" d="M61.8,112.5c-0.5-3.1-1.4-6.2-2.9-9.1c-1.1-2.2-2.2-4.3-4.1-5.9c-1.9-1.6-4-2.6-6.5-2.7c-0.2,0-0.3,0-0.4-0.2
		c3-0.8,6.7,0.4,8.7,3C60,102,61.6,107.1,61.8,112.5z"/>
	<path class="st5" d="M77.7,113.6c0.1,0.2,0,0.3-0.2,0.4l0,0C77.5,113.9,77.5,113.7,77.7,113.6C77.7,113.6,77.7,113.6,77.7,113.6z"
		/>
	<path class="st5" d="M77.5,114.1c0,0.1-0.1,0.1-0.1,0.2C77.3,114.1,77.4,114.1,77.5,114.1C77.5,114.1,77.5,114.1,77.5,114.1z"/>
	<path class="st4" d="M184.9,26.1c3.9-0.1,7.6,0.3,11.2,1.3c4.5,1.3,8.3,3.6,10.4,8c1.5,3.2,2,6.5,1.4,10c-1.3,8.1-5.2,14.9-10.5,21
		c-2.5,2.9-5.4,5.5-9.1,6.8c-1.4,0.5-2.9,0.9-4.6,0.6c-1-0.2-1.7-0.7-2.2-1.6c-0.9-1.9-1.1-3.8-0.6-5.8c1.1-4.1,1.9-8.2,3.1-12.2
		c0.7-2.6,1-5.3,1.2-8c0.1-2-0.2-4-1.5-5.7c-2.2-2.9-4.9-5-8.6-5.9c-4.4-1.1-8,0.1-11.1,3.3c-4.1,4.2-7.4,9-9.6,14.4
		c-2.1,5-5,9.4-8.6,13.4c-0.5,0.6-0.9,1.2-1.4,1.7c-1,1-2.3,1.7-3.6,1.4c-1.2-0.3-1.9-1.6-2.1-2.9c-0.2-1.2-0.6-2.4-0.6-3.7
		c0-2.4,0.5-4.7,1.1-7c1-3.9,2.2-7.7,3.3-11.6c1-3.2,2-6.5,2.9-9.7c0.4-1.5,1.2-2.4,2.9-2.6c5.5-0.7,11-1.6,16.5-2.5
		c3.3-0.5,6.6-1.3,9.9-1.8C178.3,26.5,181.6,26,184.9,26.1z M182.1,66.4c0.1,0.1,0.1,0.1,0.2,0.2c1.4-0.9,2.6-2,3.8-3.2
		c2.6-2.8,4.9-5.8,6.7-9.2c2.4-4.8,4.7-9.6,3.8-15.2c-0.3-2.1-1-4.1-2.3-5.8c-1.7-2.3-4.1-3.6-6.8-4.4c-3.4-1-6.9-1.8-10.5-1
		c-2,0.4-4,0.7-6,1.1c-3.2,0.5-6.4,1.1-9.6,1.6c-2.9,0.5-5.8,0.9-8.8,1.3c-1.5,0.2-3,0.4-4.5,0.7c-0.6,0.1-1,0.4-1.2,1.1
		c-0.9,3.2-1.9,6.5-2.9,9.7c-1.4,4.5-2.8,9.1-3.9,13.8c-0.3,1.3-0.7,2.7-0.4,4.2c3.3-3.6,5.7-7.5,7.6-11.9
		c2.4-5.7,5.8-10.7,10.4-14.8c2.9-2.7,6.3-3.5,10.2-2.5c1.3,0.3,2.6,1,3.9,1.1c2.2,0.1,4.4,0.4,6.4,1.3c3.2,1.4,5.6,3.6,7.3,6.6
		c1.1,2,1.1,4.2,1,6.5c-0.1,2.8-0.8,5.5-1.4,8.2C184,59.2,183,62.8,182.1,66.4z M190.5,27.6c0.6,0.3,1.2,0.6,1.7,0.9
		c0.6,0.4,1.2,0.8,1.7,1.2c4.7,4.2,5.7,9.7,4.6,15.6c-0.9,4.6-2.9,8.9-5.5,12.8c-2.8,4.3-6,8.3-10.6,11c-0.2,0.1-0.4,0.2-0.5,0.5
		c-0.2,0.9,0.9,2.9,1.8,3.2c2.6,0.8,4.9-0.2,6.8-1.8c2-1.6,3.7-3.7,5.3-5.7c5.5-6.8,9-14.6,10.7-23.2c0.2-0.9,0.4-1.8,0.2-2.8
		c-1.2-5.3-4.5-8.8-9.6-10.5C195,28.1,192.8,27.6,190.5,27.6z M167.1,34c-2.9-0.8-5.4-0.2-7.7,1.6c-2.4,1.9-4.3,4.3-6,6.8
		c-2.1,3-3.8,6.2-5.2,9.5c-1.9,4.4-4.8,8.2-8,11.7c-0.8,0.9-0.7,2.6,0.2,3.6c0.6,0.7,1.6,0.6,2.8-0.3c0.2-0.1,0.3-0.3,0.5-0.4
		c1.9-2.3,3.9-4.6,5.7-7c2.1-3,3.4-6.4,5-9.6C157.5,43.8,161.3,38.2,167.1,34z"/>
	<path class="st4" d="M98.2,59.5c0-1.8,0.3-3.5,1.1-5.1c1.7-3.7,3.3-7.4,5.6-10.7c0.4-0.6,0.8-1.3,1.6-1.4c1.4-0.3,2.2,0.4,2.2,2
		c0,1.3-0.3,2.5-0.7,3.7c-0.9,3.7-2.2,7.2-4.3,10.4c-1,1.5-2.3,2.7-3.5,3.9c-0.8,0.8-1.7,0.5-1.9-0.7C98.2,60.9,98.2,60.2,98.2,59.5
		z M99.4,61.3c0.9-0.7,1.9-1.4,2.7-2.3c2.4-3,3.8-6.5,4.8-10.2c0.4-1.5,0.8-3,0.9-4.6c0-0.5-0.1-1-0.7-1c-0.5,0-0.5,0.5-0.6,0.9
		c-0.9,5.5-2.9,10.6-6.7,14.8C99,59.7,99.2,60.6,99.4,61.3z"/>
	<path class="st4" d="M173.5,49.4c0,3.1-1,6-1.9,8.8c-1,3-2.3,5.9-4.2,8.5c-0.4,0.5-0.8,1-1.2,1.4c-1.4,1.3-2.7,0.9-3.4-0.8
		c-0.7-1.6-0.4-3.2,0.1-4.8c1.5-4.4,3.4-8.7,6.1-12.5c0.7-1,1.6-1.9,2.7-2.5c0.5-0.3,1-0.6,1.6-0.3c0.5,0.3,0.4,0.8,0.4,1.3
		C173.5,48.8,173.5,49.1,173.5,49.4z M163.5,65.2c0,0.3,0,0.7,0.1,1.1c0,0.2,0.1,0.4,0.2,0.6c0.3,0.9,0.8,1.1,1.6,0.5
		c0.9-0.7,1.4-1.5,2-2.4c1.8-2.9,3-6,4-9.1c0.7-2.2,1.3-4.4,1.1-6.7c0-0.3,0.1-0.6-0.1-0.8c-0.3-0.2-0.6,0.2-0.8,0.3
		c-0.8,0.6-1.5,1.4-2.1,2.2c-1.6,2.4-3,5-4.1,7.7C164.5,60.8,163.4,62.8,163.5,65.2z"/>
	<path class="st4" d="M103.1,117.2c0,2.4-0.7,4.4-1.3,6.3c-1.6,5.1-3.7,10.1-6.4,14.7c-2.4,4.3-5.1,8.4-8.6,11.9c-1,1-2.1,2-3.5,2.4
		c-1.3,0.4-2,0.2-2.5-0.9c-1.1-2.4-1.6-4.9-1.2-7.5c0.4-3.1,1.1-6.2,1.9-9.2c1.6-5.7,4.3-10.8,8.2-15.3c2.6-3,5.4-5.7,9.3-6.9
		c2.1-0.7,3.8,0.5,3.9,2.7C102.9,116.1,103.2,116.8,103.1,117.2z M99.9,115.3c0-1.8,0-1.8-1.2-1.3c-2,0.8-3.7,2-5.3,3.4
		c-3.6,3.2-6.2,7.1-8.3,11.3c-0.9,1.8-1.7,3.7-2.4,5.7c-0.5,1.6-0.6,3.4-1.1,5c-0.6,1.9-0.1,3.6,0.5,5.3c0.2,0.6,0.6,0.7,1.1,0.4
		c0.8-0.4,1.4-1,2.1-1.6c1.8-1.7,3.3-3.8,4.7-5.8c3.8-5.5,6.7-11.5,8.7-17.8C99.2,118.3,99.8,116.6,99.9,115.3z M80.8,146.8
		c-0.3,1.3,0.2,2.4,0.6,3.4c0.5,1.6,1.1,1.8,2.6,0.9c1.8-1.1,3.3-2.7,4.6-4.3c5.5-7.1,9.5-14.9,12.3-23.4c0.7-2.2,1.6-4.4,1.2-6.8
		c-0.6,0.7-0.5,1.6-0.8,2.4c-2.4,8-6.1,15.4-11,22.1c-1.6,2.1-3.2,4.2-5.5,5.6C83.4,147.4,82.2,147.9,80.8,146.8z"/>
	<path class="st4" d="M126.6,143.4c-0.4-1.9,0.3-3.6,0.6-5.4c0.5-3.2,1.3-6.3,2.3-9.4c1.1-3.6,2.4-7.2,4-10.7
		c1.1-2.6,2.2-5.2,3.6-7.7c0.4-0.8,0.9-1.6,1.5-2.3c0.6-0.8,1.4-0.8,2.3-0.5c0.8,0.3,1,0.9,1.1,1.8c0.3,4.9-1.4,9.4-2.9,13.9
		c-2,6-5.2,11.4-8.8,16.5c-0.6,0.8-1.2,1.6-1.8,2.5C128.1,142.8,127.5,143.3,126.6,143.4z M127.8,141.2c0.2-0.2,0.3-0.3,0.4-0.4
		c6.5-8.6,11-18.1,12.8-28.8c0.1-0.8,0.1-1.7,0-2.5c0-0.5-0.2-0.9-0.7-1.1c-0.5-0.1-0.8,0.2-1.1,0.6c-0.8,1-1.1,2.1-1.4,3.3
		c-1.3,6.1-3.6,11.7-6.8,17.1c-0.6,1.1-1.2,2.1-1.5,3.3C129,135.5,128.3,138.2,127.8,141.2z"/>
	<path class="st4" d="M52.4,115.3c0,2.5-0.4,4.3-0.8,6c-0.3,1.3-1.3,2-2.6,2.2c-0.6,0.1-0.7-0.3-0.9-0.8c-0.4-0.9-0.3-1.9-0.4-2.8
		c-0.3-3.7-0.4-7.4-0.2-11.1c0.1-1.4,0.7-2,2-1.9c0.5,0,0.8,0.3,1,0.7C51.9,110.2,52.3,113,52.4,115.3z M48.8,108.5
		c-0.4,0.3-0.3,0.8-0.3,1.2c-0.1,3.8,0,7.6,0.5,11.4c0,0.4-0.1,1.1,0.4,1.2c0.6,0.1,0.9-0.6,1.2-1.1c0.2-0.4,0.1-0.8-0.2-1.2
		c-0.3-0.3-0.5-0.6-0.6-1c-0.2-2.4-0.6-4.7-0.6-7.1C49.2,110.7,49.2,109.6,48.8,108.5z"/>
	<path class="st4" d="M168.4,150.4c-1,0.2-1.9-0.4-2.7-0.9c-1.2-0.8-1.2-1.9-0.2-2.9c0.9-0.9,1.8-1.7,2.7-2.6
		c2.5-2.5,4.6-5.2,6.4-8.3c0.1-0.2,0.2-0.4,0.4-0.6c0.3-0.4,0.7-0.4,1.1-0.2c0.4,0.1,0.4,0.4,0.4,0.8c0.1,1.4-0.1,2.7-0.4,4
		c-0.7,2.8-1.2,5.6-2.8,8.1C172.2,149.3,170.8,150.5,168.4,150.4z M175.3,136.8c-2.5,4-5.7,7.4-9.1,10.6c-0.5,0.5-0.3,0.8,0.2,1.2
		c1.9,1.5,4.3,0.9,5.8-1.4C174.2,144.1,174.8,140.5,175.3,136.8z"/>
	<path class="st4" d="M139.8,142.3c0.3,2.9-0.3,5.4-1.5,7.8c-1.3,2.6-2.9,5.1-5.4,6.8c-0.7,0.4-1.4,0.9-2.1,0.3
		c-0.9-0.7-0.7-1.6-0.2-2.4c1-1.8,2.4-3.4,3.6-5c1.5-2.1,3.1-4.1,4.6-6.2C139,143.1,139.4,142.8,139.8,142.3z M138.4,145.8
		c-0.2,0.2-0.4,0.4-0.5,0.6c-1.6,2.2-3.3,4.4-4.9,6.6c-0.6,0.8-1.3,1.6-1.7,2.5c-0.1,0.3-0.2,0.5,0.1,0.8c0.3,0.3,0.4-0.1,0.6-0.2
		c1.7-0.9,2.9-2.4,3.9-4C137.2,150.2,138.2,148.2,138.4,145.8z"/>
	<path class="st4" d="M33.8,162.2c-1.8,0.2-3.4-0.4-4.6-1.7c-0.5-0.5-0.7-1.1-0.4-1.7c0.3-0.6,0.7-1.1,1.5-1c2.8,0.2,5.5,0.8,8,2
		c0.4,0.2,0.6,0.5,0.6,1c0,0.6-0.4,0.7-0.8,0.8C36.7,161.9,35.2,162.4,33.8,162.2z M37.5,160.6c-2.1-1-4-1.3-5.9-1.7
		c-0.6-0.1-1.5-0.5-1.7,0.4c-0.2,0.7,0.7,1.1,1.3,1.4C33.1,161.5,35.2,161.4,37.5,160.6z"/>
	<path class="st5" d="M190.5,27.6c2.3,0,4.5,0.5,6.7,1.3c5.1,1.7,8.4,5.1,9.6,10.5c0.2,1,0,1.9-0.2,2.8c-1.8,8.5-5.2,16.4-10.7,23.1
		c-1.6,2-3.3,4.1-5.3,5.7c-1.9,1.6-4.2,2.6-6.8,1.8c-0.9-0.3-2-2.3-1.8-3.2c0.1-0.3,0.3-0.4,0.5-0.5c4.6-2.6,7.8-6.7,10.6-11
		c2.6-3.9,4.6-8.2,5.5-12.8c1.1-5.9,0.1-11.3-4.6-15.6c-0.5-0.5-1.1-0.9-1.7-1.2C191.6,28.1,191.1,27.9,190.5,27.6z"/>
	<path class="st5" d="M167.1,34c-5.8,4.2-9.6,9.7-12.7,15.8c-1.6,3.2-2.8,6.7-5,9.6c-1.8,2.5-3.8,4.7-5.7,7
		c-0.1,0.2-0.3,0.3-0.5,0.4c-1.1,0.8-2.1,0.9-2.8,0.3c-0.9-1-1.1-2.7-0.2-3.6c3.1-3.6,6.1-7.3,8-11.7c1.4-3.3,3.1-6.6,5.2-9.5
		c1.7-2.5,3.6-4.8,6-6.8C161.7,33.8,164.2,33.3,167.1,34z"/>
	<path class="st5" d="M99.4,61.3c-0.2-0.7-0.3-1.6,0.4-2.5c3.8-4.2,5.8-9.3,6.7-14.8c0.1-0.4,0.1-1,0.6-0.9c0.6,0,0.7,0.5,0.7,1
		c-0.1,1.6-0.5,3.1-0.9,4.6c-1,3.7-2.4,7.2-4.8,10.2C101.3,59.9,100.3,60.6,99.4,61.3z"/>
	<path class="st5" d="M163.5,65.2c-0.1-2.5,1-4.5,1.9-6.6c1.1-2.7,2.4-5.3,4.1-7.7c0.6-0.9,1.3-1.6,2.1-2.2c0.2-0.2,0.5-0.5,0.8-0.3
		c0.3,0.2,0.1,0.5,0.1,0.8c0.1,2.3-0.5,4.5-1.1,6.7c-1,3.2-2.2,6.3-4,9.1c-0.6,0.9-1.1,1.8-2,2.4c-0.8,0.6-1.2,0.4-1.6-0.5
		c-0.1-0.2-0.1-0.4-0.2-0.6C163.5,66,163.5,65.5,163.5,65.2z"/>
	<path class="st5" d="M80.8,146.8c1.4,1,2.7,0.6,3.9-0.2c2.3-1.4,3.9-3.5,5.5-5.6c4.9-6.7,8.6-14.1,11-22.1c0.2-0.8,0.2-1.6,0.8-2.4
		c0.3,2.4-0.6,4.6-1.2,6.8c-2.8,8.5-6.7,16.4-12.3,23.4c-1.3,1.7-2.7,3.2-4.6,4.3c-1.4,0.9-2.1,0.7-2.6-0.9
		C81,149.2,80.5,148.1,80.8,146.8z"/>
	<path class="st5" d="M127.8,141.2c0.5-3,1.1-5.7,1.8-8.5c0.3-1.2,0.9-2.3,1.5-3.3c3.1-5.3,5.5-11,6.8-17.1c0.3-1.2,0.6-2.4,1.4-3.3
		c0.3-0.4,0.6-0.7,1.1-0.6c0.5,0.1,0.7,0.6,0.7,1.1c0.1,0.8,0.1,1.7,0,2.5c-1.8,10.7-6.4,20.2-12.8,28.8
		C128.1,140.9,128,140.9,127.8,141.2z"/>
	<path class="st5" d="M48.8,108.5c0.3,1.1,0.3,2.3,0.3,3.4c0,2.4,0.4,4.8,0.6,7.1c0,0.4,0.3,0.7,0.6,1c0.3,0.3,0.4,0.7,0.2,1.2
		c-0.2,0.5-0.6,1.1-1.2,1.1c-0.5-0.1-0.3-0.8-0.4-1.2c-0.5-3.8-0.6-7.6-0.5-11.4C48.5,109.2,48.4,108.8,48.8,108.5z"/>
	<path class="st5" d="M175.3,136.8c-0.5,3.7-1.1,7.3-3.1,10.4c-1.5,2.3-3.8,2.8-5.8,1.4c-0.5-0.4-0.7-0.7-0.2-1.2
		C169.6,144.2,172.8,140.8,175.3,136.8z"/>
	<path class="st5" d="M138.4,145.8c-0.2,2.4-1.3,4.4-2.5,6.4c-1,1.6-2.2,3.1-3.9,4c-0.2,0.1-0.4,0.4-0.6,0.2
		c-0.2-0.2-0.2-0.5-0.1-0.8c0.4-0.9,1.1-1.7,1.7-2.5c1.6-2.2,3.2-4.4,4.9-6.6C138.1,146.2,138.2,146,138.4,145.8z"/>
	<path class="st5" d="M37.5,160.6c-2.3,0.8-4.4,0.9-6.4,0c-0.6-0.3-1.4-0.6-1.3-1.4c0.2-0.9,1.2-0.5,1.7-0.4
		C33.5,159.2,35.4,159.6,37.5,160.6z"/>
</g>
</svg>
